<?xml version="1.0" encoding="UTF-8"?><svg id="Layer_1" xmlns="http://www.w3.org/2000/svg" viewBox="0 0 644.82 467.74"><defs><style>.cls-1{fill:#131313;}.cls-2{fill:#fcc947;}</style></defs><g><path class="cls-1" d="m123.87,45.12h-41.46v-24.43h112.89v24.43h-41.46v105.12h-29.98V45.12Z"/><path class="cls-1" d="m272.67,49.19v26.65c-2.41-.19-4.26-.37-6.48-.37-15.91,0-26.46,8.7-26.46,27.76v47.01h-28.87V50.67h27.57v13.14c7.03-9.62,18.88-14.62,34.24-14.62Z"/><path class="cls-1" d="m394.64,50.67v99.57h-27.39v-11.84c-7.59,8.7-18.69,13.32-30.91,13.32-24.98,0-42.57-14.07-42.57-44.79v-56.26h28.87v52c0,16.66,7.4,24.06,20.17,24.06s22.95-8.51,22.95-26.84v-49.23h28.87Z"/><path class="cls-1" d="m489.39,145.42c-5.92,4.26-14.62,6.29-23.5,6.29-23.5,0-37.2-12.03-37.2-35.72v-40.9h-15.36v-22.21h15.36v-24.24h28.87v24.24h24.8v22.21h-24.8v40.53c0,8.51,4.63,13.14,12.4,13.14,4.26,0,8.51-1.3,11.66-3.7l7.77,20.36Z"/><path class="cls-1" d="m611.17,93.23v57h-28.87v-52.56c0-16.1-7.4-23.5-20.17-23.5-13.88,0-23.87,8.51-23.87,26.84v49.23h-28.87V12.91h28.87v48.12c7.77-7.77,18.88-11.84,31.65-11.84,23.5,0,41.27,13.7,41.27,44.05Z"/></g><g><path class="cls-1" d="m205.48,263.29c0,22.39-17.77,35.35-51.82,35.35h-67v-129.55h63.29c32.39,0,49.04,13.51,49.04,33.68,0,12.95-6.66,22.95-17.21,28.5,14.43,4.63,23.69,15.73,23.69,32.02Zm-89.02-71.62v30.54h29.79c14.62,0,22.58-5.18,22.58-15.36s-7.96-15.18-22.58-15.18h-29.79Zm58.85,68.48c0-10.92-8.33-16.1-23.88-16.1h-34.98v32.02h34.98c15.55,0,23.88-4.81,23.88-15.92Z"/><path class="cls-1" d="m209.56,248.86c0-29.98,23.13-51.27,54.78-51.27s54.59,21.28,54.59,51.27-22.95,51.26-54.59,51.26-54.78-21.28-54.78-51.26Zm80.13,0c0-17.21-10.92-27.58-25.35-27.58s-25.54,10.36-25.54,27.58,11.1,27.57,25.54,27.57,25.35-10.37,25.35-27.57Z"/><path class="cls-1" d="m497.16,241.64v57h-28.87v-52.56c0-16.1-7.22-23.5-18.88-23.5-12.95,0-22.02,8.33-22.02,26.1v49.97h-28.87v-52.56c0-16.1-6.85-23.5-18.88-23.5-12.77,0-21.84,8.33-21.84,26.1v49.97h-28.87v-99.57h27.58v11.47c7.4-8.51,18.5-12.95,31.28-12.95,13.88,0,25.72,5.37,32.76,16.29,7.96-10.18,20.91-16.29,35.9-16.29,23.69,0,40.71,13.7,40.71,44.05Z"/><path class="cls-1" d="m622.27,248.86c0,31.28-21.65,51.26-49.6,51.26-13.33,0-24.06-4.26-31.28-12.96v11.47h-27.58v-137.32h28.87v48.3c7.4-8.14,17.58-12.03,29.98-12.03,27.95,0,49.6,19.99,49.6,51.27Zm-29.24,0c0-17.21-10.92-27.58-25.35-27.58s-25.35,10.36-25.35,27.58,10.92,27.57,25.35,27.57,25.35-10.37,25.35-27.57Z"/></g><g><path class="cls-1" d="m80.75,433.78l10.18-22.58c10.92,7.96,27.21,13.51,42.75,13.51,17.77,0,24.98-5.92,24.98-13.88,0-24.24-75.32-7.59-75.32-55.7,0-22.02,17.77-40.35,54.59-40.35,16.29,0,32.94,3.89,44.97,11.47l-9.25,22.76c-12.03-6.85-24.43-10.18-35.9-10.18-17.77,0-24.61,6.66-24.61,14.81,0,23.88,75.32,7.4,75.32,54.97,0,21.65-17.95,40.16-54.97,40.16-20.54,0-41.27-6.11-52.75-14.99Z"/><path class="cls-1" d="m195.86,396.76c0-29.98,23.13-51.26,54.78-51.26s54.6,21.28,54.6,51.26-22.95,51.26-54.6,51.26-54.78-21.28-54.78-51.26Zm80.13,0c0-17.21-10.92-27.57-25.35-27.57s-25.54,10.36-25.54,27.57,11.1,27.57,25.54,27.57,25.35-10.36,25.35-27.57Z"/><path class="cls-1" d="m313.38,396.76c0-29.98,23.13-51.26,55.52-51.26,20.91,0,37.38,9.07,44.6,25.35l-22.39,12.03c-5.37-9.44-13.33-13.69-22.39-13.69-14.62,0-26.1,10.18-26.1,27.57s11.47,27.57,26.1,27.57c9.07,0,17.02-4.07,22.39-13.69l22.39,12.21c-7.22,15.91-23.69,25.17-44.6,25.17-32.39,0-55.52-21.28-55.52-51.26Z"/><path class="cls-1" d="m422.95,317c0-9.07,7.22-16.1,17.95-16.1s17.95,6.66,17.95,15.55c0,9.62-7.22,16.66-17.95,16.66s-17.95-7.03-17.95-16.1Zm3.52,29.98h28.87v99.57h-28.87v-99.57Z"/><path class="cls-1" d="m566.56,389.73v56.82h-27.02v-12.4c-5.37,9.07-15.73,13.88-30.35,13.88-23.32,0-37.2-12.95-37.2-30.17s12.4-29.79,42.75-29.79h22.95c0-12.4-7.4-19.62-22.95-19.62-10.55,0-21.47,3.52-28.69,9.25l-10.36-20.17c10.92-7.77,27.02-12.03,42.93-12.03,30.35,0,47.93,14.06,47.93,44.23Zm-28.87,25.35v-10.18h-19.8c-13.51,0-17.77,5-17.77,11.66,0,7.22,6.11,12.03,16.28,12.03,9.62,0,17.95-4.44,21.28-13.51Z"/><path class="cls-1" d="m588.96,309.22h28.87v137.32h-28.87v-137.32Z"/></g><rect class="cls-2" x="27.38" y="21.2" width="26.96" height="425.35"/></svg>